<svg xmlns="http://www.w3.org/2000/svg" xmlns:xlink="http://www.w3.org/1999/xlink" viewBox="0,0,256,256" width="50px" height="50px" fill-rule="nonzero"><g fill="#ffffff" fill-rule="nonzero" stroke="none" stroke-width="1" stroke-linecap="butt" stroke-linejoin="miter" stroke-miterlimit="10" stroke-dasharray="" stroke-dashoffset="0" font-family="none" font-weight="none" font-size="none" text-anchor="none" style="mix-blend-mode: normal"><g transform="scale(5.12,5.12)"><path d="M25,2c-12.69071,0 -23,10.3093 -23,23c0,12.6907 10.30929,23 23,23c12.69071,0 23,-10.3093 23,-23c0,-12.6907 -10.30929,-23 -23,-23zM25,4c11.60983,0 21,9.39017 21,21c0,11.60983 -9.39017,21 -21,21c-11.60983,0 -21,-9.39017 -21,-21c0,-11.60982 9.39017,-21 21,-21zM25.98438,10.98633c-0.55152,0.00862 -0.99193,0.46214 -0.98437,1.01367v1.05469c-0.94452,-0.37334 -2.57812,-0.96094 -2.57812,-0.96094c-0.42654,-0.19806 -0.93345,-0.07219 -1.21779,0.30239c-0.28434,0.37458 -0.2693,0.89667 0.03615,1.25425c0,0 1.3768,1.61479 2.18555,4.04102c0.80874,2.42623 1.05816,5.5088 -1.24023,8.72656c-0.21818,0.30495 -0.24745,0.70632 -0.07582,1.0397c0.17163,0.33338 0.51532,0.54274 0.89028,0.54233h2v2h-3c-1.11667,0 -2,-0.88333 -2,-2c-0.00006,-0.55226 -0.44774,-0.99994 -1,-1h-8c-0.30334,-0.00007 -0.59032,0.13755 -0.78019,0.37412c-0.18987,0.23657 -0.2621,0.54654 -0.19637,0.84267l0.31055,1.39648c1.08744,4.89403 5.43908,8.38672 10.45313,8.38672h8.12305c3.46568,0 6.55255,-2.22404 7.64844,-5.51172c0.16626,-0.49879 0.52331,-0.91107 0.99414,-1.14648l2.89453,-1.44727c0.33878,-0.16944 0.55276,-0.51574 0.55273,-0.89453v-2c-0.00017,-0.31383 -0.14763,-0.60938 -0.39828,-0.79823c-0.25065,-0.18885 -0.57541,-0.24909 -0.87711,-0.16271l-7,2c-0.09919,0.02831 -0.1934,0.07179 -0.2793,0.12891l-2.36914,1.58008c-0.24655,0.16437 -0.53702,0.25195 -0.83398,0.25195h-2.24219v-2h3c0.20552,-0.00011 0.40602,-0.06353 0.57422,-0.18164c0,0 2.2673,-1.51698 3.01367,-4.16406c0.37318,-1.32354 0.31192,-2.96064 -0.60352,-4.61914c-0.91544,-1.6585 -2.62492,-3.33489 -5.47461,-5.02734c-0.06698,-0.0401 -0.13844,-0.07222 -0.21289,-0.0957c-0.17915,-0.05578 -0.1254,-0.05584 -0.29687,-0.11133v-1.80078c0.0037,-0.2703 -0.10218,-0.53059 -0.29351,-0.72155c-0.19133,-0.19097 -0.45182,-0.29634 -0.72212,-0.29212zM18.99609,14c-0.35001,0.00159 -0.67371,0.18603 -0.85352,0.48633l-6,10c-0.18485,0.30888 -0.18945,0.69328 -0.01203,1.00649c0.17742,0.31321 0.50948,0.50691 0.86945,0.50718h7c0.3514,-0.00022 0.6769,-0.18484 0.85742,-0.48633c0,0 3.27935,-5.69428 -1.07617,-11.13867c-0.19078,-0.23827 -0.47992,-0.37637 -0.78516,-0.375zM24.30273,14.92383c0.82486,0.3262 0.92812,0.42103 2.23242,0.83594c2.61333,1.56115 4.02583,3.0222 4.69922,4.24219c0.67831,1.2289 0.67955,2.21629 0.42773,3.10938c-0.45074,1.59861 -1.74462,2.65528 -2.04102,2.88867h-4.96875c1.65681,-3.26805 1.48225,-6.51027 0.67188,-8.94141c-0.29424,-0.88272 -0.66439,-1.46432 -1.02148,-2.13477zM18.93945,17.04297c1.91562,3.5797 0.69762,6.36495 0.36523,6.95703h-4.53906zM39,28.32617v0.05664l-2.3418,1.16992c-0.94517,0.47258 -1.66431,1.30152 -1.99805,2.30273c-0.82611,2.47832 -3.13768,4.14453 -5.75,4.14453h-8.12305c-4.08795,0 -7.61344,-2.83034 -8.5,-6.82031l-0.03906,-0.17969h5.95508c0.45635,1.70636 1.95328,3 3.79688,3h7.24219c0.69103,0 1.36791,-0.20426 1.94336,-0.58789l2.24023,-1.49414z"></path></g></g></svg>